<svg width="314" height="56" viewBox="0 0 314 56" fill="none" xmlns="http://www.w3.org/2000/svg">
<g clip-path="url(#clip0_702_13915)">
<mask id="mask0_702_13915" style="mask-type:luminance" maskUnits="userSpaceOnUse" x="0" y="0" width="56" height="56">
<path d="M56 0H0V56H56V0Z" fill="white"/>
</mask>
<g mask="url(#mask0_702_13915)">
<path d="M37.4453 48.127C35.0253 49.2037 32.3979 49.7618 29.7507 49.7618C19.2462 49.7618 10.7318 41.2419 10.7318 30.7363C10.7318 20.2307 19.2511 11.7107 29.7507 11.7107C40.2505 11.7107 48.7747 20.2307 48.7747 30.7363C48.7747 35.7544 46.814 40.3034 43.6433 43.7065L47.1745 48.3937C52.607 43.2817 56 36.0409 56 27.9951C55.995 12.5356 43.4557 0 27.9975 0C12.5394 0 0 12.5356 0 28C0 43.4645 12.5344 56 27.9975 56C32.5164 56.005 36.9712 54.9135 40.9765 52.814L37.4453 48.127Z" fill="#1087EF"/>
<path d="M18.3374 30.7311C18.3374 37.0344 23.449 42.1422 29.7508 42.1422C36.0526 42.1422 41.1641 37.0294 41.1641 30.7311C41.1641 24.4328 36.0575 19.3152 29.7508 19.3152C23.4441 19.3152 18.3374 24.423 18.3374 30.7311Z" fill="#6CB2EF"/>
</g>
</g>
<path d="M85.46 34.26C84.82 33.9 84.17 33.42 83.51 32.82C82.87 32.24 82.27 31.58 81.71 30.84C81.15 30.1 80.67 29.35 80.27 28.59L83.36 27.27C83.86 28.31 84.54 29.25 85.4 30.09C86.26 30.93 87.15 31.64 88.07 32.22L85.46 34.26ZM69.65 17.91C69.65 15.69 70.05 13.77 70.85 12.15C71.67 10.53 72.84 9.28 74.36 8.4C75.88 7.5 77.69 7.05 79.79 7.05C81.87 7.05 83.67 7.5 85.19 8.4C86.71 9.28 87.88 10.53 88.7 12.15C89.54 13.77 89.96 15.68 89.96 17.88C89.96 20.1 89.54 22.03 88.7 23.67C87.88 25.29 86.71 26.55 85.19 27.45C83.67 28.35 81.87 28.8 79.79 28.8C77.69 28.8 75.88 28.35 74.36 27.45C72.86 26.55 71.7 25.29 70.88 23.67C70.06 22.03 69.65 20.11 69.65 17.91ZM73.7 17.91C73.7 20.29 74.21 22.15 75.23 23.49C76.25 24.83 77.77 25.5 79.79 25.5C81.75 25.5 83.26 24.83 84.32 23.49C85.38 22.15 85.91 20.29 85.91 17.91C85.91 15.51 85.38 13.65 84.32 12.33C83.28 11.01 81.77 10.35 79.79 10.35C77.77 10.35 76.25 11.01 75.23 12.33C74.21 13.65 73.7 15.51 73.7 17.91ZM93.6533 28.5V17.13C93.6533 16.51 93.6333 15.88 93.5933 15.24C93.5533 14.6 93.4933 13.97 93.4133 13.35H97.0433L97.3433 16.35H96.9833C97.4033 15.31 98.0433 14.5 98.9033 13.92C99.7833 13.34 100.823 13.05 102.023 13.05C103.223 13.05 104.213 13.34 104.993 13.92C105.793 14.48 106.353 15.36 106.673 16.56H106.193C106.613 15.48 107.303 14.63 108.263 14.01C109.223 13.37 110.323 13.05 111.563 13.05C113.263 13.05 114.533 13.55 115.373 14.55C116.213 15.55 116.633 17.11 116.633 19.23V28.5H112.883V19.38C112.883 18.18 112.683 17.32 112.283 16.8C111.883 16.26 111.243 15.99 110.363 15.99C109.323 15.99 108.503 16.36 107.903 17.1C107.303 17.82 107.003 18.8 107.003 20.04V28.5H103.253V19.38C103.253 18.18 103.053 17.32 102.653 16.8C102.253 16.26 101.613 15.99 100.733 15.99C99.6933 15.99 98.8733 16.36 98.2733 17.1C97.6933 17.82 97.4033 18.8 97.4033 20.04V28.5H93.6533ZM127.956 28.8C125.416 28.8 123.426 28.1 121.986 26.7C120.546 25.3 119.826 23.38 119.826 20.94C119.826 19.36 120.136 17.98 120.756 16.8C121.376 15.62 122.236 14.7 123.336 14.04C124.456 13.38 125.756 13.05 127.236 13.05C128.696 13.05 129.916 13.36 130.896 13.98C131.876 14.6 132.616 15.47 133.116 16.59C133.636 17.71 133.896 19.02 133.896 20.52V21.51H122.856V19.53H131.226L130.716 19.95C130.716 18.55 130.416 17.48 129.816 16.74C129.236 16 128.386 15.63 127.266 15.63C126.026 15.63 125.066 16.07 124.386 16.95C123.726 17.83 123.396 19.06 123.396 20.64V21.03C123.396 22.67 123.796 23.9 124.596 24.72C125.416 25.52 126.566 25.92 128.046 25.92C128.906 25.92 129.706 25.81 130.446 25.59C131.206 25.35 131.926 24.97 132.606 24.45L133.716 26.97C132.996 27.55 132.136 28 131.136 28.32C130.136 28.64 129.076 28.8 127.956 28.8ZM142.951 28.8C141.631 28.8 140.461 28.49 139.441 27.87C138.441 27.23 137.661 26.32 137.101 25.14C136.541 23.96 136.261 22.55 136.261 20.91C136.261 19.27 136.541 17.87 137.101 16.71C137.661 15.53 138.441 14.63 139.441 14.01C140.461 13.37 141.631 13.05 142.951 13.05C144.211 13.05 145.321 13.36 146.281 13.98C147.261 14.58 147.911 15.4 148.231 16.44H147.841V6.42H151.591V28.5H147.901V25.29H148.261C147.941 26.37 147.291 27.23 146.311 27.87C145.351 28.49 144.231 28.8 142.951 28.8ZM144.001 25.92C145.181 25.92 146.131 25.51 146.851 24.69C147.571 23.85 147.931 22.59 147.931 20.91C147.931 19.23 147.571 17.98 146.851 17.16C146.131 16.34 145.181 15.93 144.001 15.93C142.821 15.93 141.861 16.34 141.121 17.16C140.401 17.98 140.041 19.23 140.041 20.91C140.041 22.59 140.401 23.85 141.121 24.69C141.861 25.51 142.821 25.92 144.001 25.92ZM155.675 28.5V13.35H159.425V28.5H155.675ZM155.465 10.5V6.84H159.635V10.5H155.465ZM169.347 28.8C168.027 28.8 166.867 28.49 165.867 27.87C164.867 27.23 164.087 26.32 163.527 25.14C162.967 23.96 162.687 22.55 162.687 20.91C162.687 19.27 162.967 17.87 163.527 16.71C164.087 15.53 164.867 14.63 165.867 14.01C166.867 13.37 168.027 13.05 169.347 13.05C170.627 13.05 171.747 13.37 172.707 14.01C173.687 14.63 174.337 15.47 174.657 16.53H174.327L174.657 13.35H178.257C178.197 13.97 178.137 14.6 178.077 15.24C178.037 15.88 178.017 16.51 178.017 17.13V28.5H174.297L174.267 25.38H174.627C174.307 26.42 173.657 27.25 172.677 27.87C171.697 28.49 170.587 28.8 169.347 28.8ZM170.397 25.92C171.577 25.92 172.527 25.51 173.247 24.69C173.967 23.85 174.327 22.59 174.327 20.91C174.327 19.23 173.967 17.98 173.247 17.16C172.527 16.34 171.577 15.93 170.397 15.93C169.217 15.93 168.267 16.34 167.547 17.16C166.827 17.98 166.467 19.23 166.467 20.91C166.467 22.59 166.817 23.85 167.517 24.69C168.237 25.51 169.197 25.92 170.397 25.92ZM190.663 28.5V7.35H194.053L201.823 24.84H200.893L208.663 7.35H212.023V28.5H208.513V12.81H209.593L202.483 28.5H200.173L193.063 12.81H194.173V28.5H190.663ZM222.286 28.8C220.966 28.8 219.806 28.49 218.806 27.87C217.806 27.23 217.026 26.32 216.466 25.14C215.906 23.96 215.626 22.55 215.626 20.91C215.626 19.27 215.906 17.87 216.466 16.71C217.026 15.53 217.806 14.63 218.806 14.01C219.806 13.37 220.966 13.05 222.286 13.05C223.566 13.05 224.686 13.37 225.646 14.01C226.626 14.63 227.276 15.47 227.596 16.53H227.266L227.596 13.35H231.196C231.136 13.97 231.076 14.6 231.016 15.24C230.976 15.88 230.956 16.51 230.956 17.13V28.5H227.236L227.206 25.38H227.566C227.246 26.42 226.596 27.25 225.616 27.87C224.636 28.49 223.526 28.8 222.286 28.8ZM223.336 25.92C224.516 25.92 225.466 25.51 226.186 24.69C226.906 23.85 227.266 22.59 227.266 20.91C227.266 19.23 226.906 17.98 226.186 17.16C225.466 16.34 224.516 15.93 223.336 15.93C222.156 15.93 221.206 16.34 220.486 17.16C219.766 17.98 219.406 19.23 219.406 20.91C219.406 22.59 219.756 23.85 220.456 24.69C221.176 25.51 222.136 25.92 223.336 25.92ZM235.01 28.5V17.22C235.01 16.58 234.99 15.93 234.95 15.27C234.93 14.61 234.88 13.97 234.8 13.35H238.43L238.85 17.49H238.25C238.45 16.49 238.78 15.66 239.24 15C239.72 14.34 240.3 13.85 240.98 13.53C241.66 13.21 242.4 13.05 243.2 13.05C243.56 13.05 243.85 13.07 244.07 13.11C244.29 13.13 244.51 13.18 244.73 13.26L244.7 16.56C244.32 16.4 243.99 16.3 243.71 16.26C243.45 16.22 243.12 16.2 242.72 16.2C241.86 16.2 241.13 16.38 240.53 16.74C239.95 17.1 239.51 17.6 239.21 18.24C238.93 18.88 238.79 19.61 238.79 20.43V28.5H235.01ZM246.817 28.5V6.42H250.567V19.8H250.627L256.777 13.35H261.307L253.657 21.36L253.687 19.86L261.847 28.5H257.197L250.627 21.72H250.567V28.5H246.817ZM270.397 28.8C267.857 28.8 265.867 28.1 264.427 26.7C262.987 25.3 262.267 23.38 262.267 20.94C262.267 19.36 262.577 17.98 263.197 16.8C263.817 15.62 264.677 14.7 265.777 14.04C266.897 13.38 268.197 13.05 269.677 13.05C271.137 13.05 272.357 13.36 273.337 13.98C274.317 14.6 275.057 15.47 275.557 16.59C276.077 17.71 276.337 19.02 276.337 20.52V21.51H265.297V19.53H273.667L273.157 19.95C273.157 18.55 272.857 17.48 272.257 16.74C271.677 16 270.827 15.63 269.707 15.63C268.467 15.63 267.507 16.07 266.827 16.95C266.167 17.83 265.837 19.06 265.837 20.64V21.03C265.837 22.67 266.237 23.9 267.037 24.72C267.857 25.52 269.007 25.92 270.487 25.92C271.347 25.92 272.147 25.81 272.887 25.59C273.647 25.35 274.367 24.97 275.047 24.45L276.157 26.97C275.437 27.55 274.577 28 273.577 28.32C272.577 28.64 271.517 28.8 270.397 28.8ZM285.934 28.8C284.134 28.8 282.774 28.33 281.854 27.39C280.934 26.45 280.474 25.04 280.474 23.16V16.17H277.564V13.35H280.474V9.48L284.224 8.52V13.35H288.274V16.17H284.224V22.92C284.224 23.96 284.424 24.69 284.824 25.11C285.224 25.53 285.774 25.74 286.474 25.74C286.854 25.74 287.174 25.71 287.434 25.65C287.714 25.59 287.984 25.51 288.244 25.41V28.38C287.904 28.52 287.524 28.62 287.104 28.68C286.704 28.76 286.314 28.8 285.934 28.8Z" fill="white"/>
<path d="M69.233 38.3182H70.446V46.3324H70.5455L76.1136 38.3182H77.3068V48.5H76.0739V40.5057H75.9744L70.4261 48.5H69.233V38.3182ZM84.7257 44.1449V45.2386H80.5098V44.1449H84.7257ZM80.7882 40.8636V48.5H79.6149V40.8636H80.7882ZM85.6206 40.8636V48.5H84.4473V40.8636H85.6206ZM86.7243 41.9574V40.8636H92.9288V41.9574H90.4231V48.5H89.2498V41.9574H86.7243ZM97.4455 48.6591C96.7097 48.6591 96.075 48.4967 95.5414 48.1719C95.0111 47.8438 94.6017 47.3864 94.3134 46.7997C94.0283 46.2098 93.8858 45.5237 93.8858 44.7415C93.8858 43.9593 94.0283 43.2699 94.3134 42.6733C94.6017 42.0734 95.0028 41.6061 95.5165 41.2713C96.0336 40.9332 96.6368 40.7642 97.3262 40.7642C97.7239 40.7642 98.1167 40.8305 98.5044 40.9631C98.8922 41.0956 99.2452 41.3111 99.5634 41.6094C99.8816 41.9044 100.135 42.2955 100.324 42.7827C100.513 43.2699 100.607 43.8698 100.607 44.5824V45.0795H94.7211V44.0653H99.4142C99.4142 43.6345 99.3281 43.25 99.1557 42.9119C98.9867 42.5739 98.7447 42.3071 98.4299 42.1115C98.1183 41.916 97.7504 41.8182 97.3262 41.8182C96.8588 41.8182 96.4545 41.9342 96.1131 42.1662C95.775 42.3949 95.5149 42.6932 95.3326 43.0611C95.1503 43.429 95.0591 43.8234 95.0591 44.2443V44.9205C95.0591 45.4972 95.1586 45.986 95.3574 46.3871C95.5596 46.7848 95.8397 47.0881 96.1976 47.2969C96.5556 47.5024 96.9715 47.6051 97.4455 47.6051C97.7537 47.6051 98.0321 47.562 98.2807 47.4759C98.5326 47.3864 98.7497 47.2538 98.932 47.0781C99.1143 46.8991 99.2551 46.6771 99.3546 46.4119L100.488 46.7301C100.369 47.1146 100.168 47.4527 99.8865 47.7443C99.6048 48.0327 99.2568 48.258 98.8425 48.4205C98.4282 48.5795 97.9625 48.6591 97.4455 48.6591ZM102.392 51.3636V40.8636H103.526V42.0767H103.665C103.751 41.9441 103.87 41.7751 104.023 41.5696C104.179 41.3608 104.401 41.1752 104.689 41.0128C104.981 40.8471 105.375 40.7642 105.872 40.7642C106.515 40.7642 107.082 40.925 107.573 41.2464C108.063 41.5679 108.446 42.0237 108.721 42.6136C108.996 43.2036 109.134 43.8996 109.134 44.7017C109.134 45.5104 108.996 46.2114 108.721 46.8047C108.446 47.3946 108.065 47.852 107.578 48.1768C107.09 48.4983 106.529 48.6591 105.892 48.6591C105.402 48.6591 105.009 48.5779 104.714 48.4155C104.419 48.2498 104.192 48.0625 104.033 47.8537C103.874 47.6416 103.751 47.4659 103.665 47.3267H103.566V51.3636H102.392ZM103.546 44.6818C103.546 45.2585 103.63 45.7673 103.799 46.2081C103.968 46.6456 104.215 46.9886 104.54 47.2372C104.865 47.4825 105.262 47.6051 105.733 47.6051C106.224 47.6051 106.633 47.4759 106.961 47.2173C107.293 46.9555 107.541 46.6042 107.707 46.1634C107.876 45.7192 107.96 45.2254 107.96 44.6818C107.96 44.1449 107.878 43.661 107.712 43.2301C107.549 42.7959 107.302 42.4529 106.971 42.201C106.643 41.9458 106.23 41.8182 105.733 41.8182C105.256 41.8182 104.855 41.9392 104.53 42.1811C104.205 42.4197 103.96 42.7545 103.794 43.1854C103.628 43.6129 103.546 44.1117 103.546 44.6818ZM116.034 44.1449V45.2386H111.818V44.1449H116.034ZM112.097 40.8636V48.5H110.923V40.8636H112.097ZM116.929 40.8636V48.5H115.756V40.8636H116.929ZM122.274 48.6591C121.538 48.6591 120.903 48.4967 120.369 48.1719C119.839 47.8438 119.43 47.3864 119.142 46.7997C118.856 46.2098 118.714 45.5237 118.714 44.7415C118.714 43.9593 118.856 43.2699 119.142 42.6733C119.43 42.0734 119.831 41.6061 120.345 41.2713C120.862 40.9332 121.465 40.7642 122.154 40.7642C122.552 40.7642 122.945 40.8305 123.333 40.9631C123.72 41.0956 124.073 41.3111 124.392 41.6094C124.71 41.9044 124.963 42.2955 125.152 42.7827C125.341 43.2699 125.436 43.8698 125.436 44.5824V45.0795H119.549V44.0653H124.242C124.242 43.6345 124.156 43.25 123.984 42.9119C123.815 42.5739 123.573 42.3071 123.258 42.1115C122.946 41.916 122.579 41.8182 122.154 41.8182C121.687 41.8182 121.283 41.9342 120.941 42.1662C120.603 42.3949 120.343 42.6932 120.161 43.0611C119.978 43.429 119.887 43.8234 119.887 44.2443V44.9205C119.887 45.4972 119.987 45.986 120.186 46.3871C120.388 46.7848 120.668 47.0881 121.026 47.2969C121.384 47.5024 121.8 47.6051 122.274 47.6051C122.582 47.6051 122.86 47.562 123.109 47.4759C123.361 47.3864 123.578 47.2538 123.76 47.0781C123.942 46.8991 124.083 46.6771 124.183 46.4119L125.316 46.7301C125.197 47.1146 124.996 47.4527 124.715 47.7443C124.433 48.0327 124.085 48.258 123.671 48.4205C123.256 48.5795 122.791 48.6591 122.274 48.6591ZM126.509 41.9574V40.8636H132.714V41.9574H130.208V48.5H129.035V41.9574H126.509ZM138.404 43.5881V44.6818H133.949V43.5881H138.404ZM144.645 46.9091L147.309 40.8636H148.423L145.122 48.5H144.167L140.926 40.8636H142.02L144.645 46.9091ZM141.642 40.8636V48.5H140.468V40.8636H141.642ZM147.647 48.5V40.8636H148.821V48.5H147.647ZM153.216 48.679C152.732 48.679 152.292 48.5878 151.898 48.4055C151.504 48.2199 151.19 47.9531 150.958 47.6051C150.726 47.2538 150.61 46.8295 150.61 46.3324C150.61 45.8949 150.697 45.5402 150.869 45.2685C151.041 44.9934 151.272 44.7779 151.56 44.6222C151.848 44.4664 152.167 44.3504 152.515 44.2741C152.866 44.1946 153.219 44.1316 153.574 44.0852C154.038 44.0256 154.414 43.9808 154.702 43.951C154.994 43.9179 155.206 43.8632 155.338 43.7869C155.474 43.7107 155.542 43.5781 155.542 43.3892V43.3494C155.542 42.8589 155.408 42.4777 155.14 42.206C154.874 41.9342 154.472 41.7983 153.931 41.7983C153.371 41.7983 152.932 41.9209 152.614 42.1662C152.296 42.4115 152.072 42.6733 151.943 42.9517L150.829 42.554C151.028 42.09 151.293 41.7287 151.625 41.4702C151.959 41.2083 152.324 41.026 152.718 40.9233C153.116 40.8172 153.507 40.7642 153.892 40.7642C154.137 40.7642 154.419 40.794 154.737 40.8537C155.058 40.91 155.368 41.0277 155.667 41.2067C155.968 41.3857 156.218 41.6558 156.417 42.017C156.616 42.3783 156.716 42.8622 156.716 43.4688V48.5H155.542V47.4659H155.483C155.403 47.6316 155.27 47.8089 155.085 47.9979C154.899 48.1868 154.652 48.3475 154.344 48.4801C154.036 48.6127 153.66 48.679 153.216 48.679ZM153.395 47.625C153.859 47.625 154.25 47.5339 154.568 47.3516C154.889 47.1693 155.131 46.9339 155.294 46.6456C155.459 46.3572 155.542 46.054 155.542 45.7358V44.6619C155.493 44.7216 155.383 44.7763 155.214 44.826C155.048 44.8724 154.856 44.9138 154.637 44.9503C154.422 44.9834 154.212 45.0133 154.006 45.0398C153.804 45.063 153.64 45.0829 153.514 45.0994C153.209 45.1392 152.924 45.2038 152.659 45.2933C152.397 45.3795 152.185 45.5104 152.022 45.6861C151.863 45.8584 151.784 46.0937 151.784 46.392C151.784 46.7997 151.935 47.108 152.236 47.3168C152.541 47.5223 152.927 47.625 153.395 47.625ZM163.57 40.8636V41.9574H160.03V48.5H158.857V40.8636H163.57ZM167.134 48.679C166.65 48.679 166.21 48.5878 165.816 48.4055C165.422 48.2199 165.108 47.9531 164.876 47.6051C164.644 47.2538 164.528 46.8295 164.528 46.3324C164.528 45.8949 164.615 45.5402 164.787 45.2685C164.959 44.9934 165.19 44.7779 165.478 44.6222C165.766 44.4664 166.085 44.3504 166.433 44.2741C166.784 44.1946 167.137 44.1316 167.491 44.0852C167.955 44.0256 168.332 43.9808 168.62 43.951C168.912 43.9179 169.124 43.8632 169.256 43.7869C169.392 43.7107 169.46 43.5781 169.46 43.3892V43.3494C169.46 42.8589 169.326 42.4777 169.058 42.206C168.792 41.9342 168.39 41.7983 167.849 41.7983C167.289 41.7983 166.85 41.9209 166.532 42.1662C166.214 42.4115 165.99 42.6733 165.861 42.9517L164.747 42.554C164.946 42.09 165.211 41.7287 165.543 41.4702C165.877 41.2083 166.242 41.026 166.636 40.9233C167.034 40.8172 167.425 40.7642 167.81 40.7642C168.055 40.7642 168.337 40.794 168.655 40.8537C168.976 40.91 169.286 41.0277 169.585 41.2067C169.886 41.3857 170.136 41.6558 170.335 42.017C170.534 42.3783 170.634 42.8622 170.634 43.4688V48.5H169.46V47.4659H169.401C169.321 47.6316 169.188 47.8089 169.003 47.9979C168.817 48.1868 168.57 48.3475 168.262 48.4801C167.954 48.6127 167.578 48.679 167.134 48.679ZM167.312 47.625C167.777 47.625 168.168 47.5339 168.486 47.3516C168.807 47.1693 169.049 46.9339 169.212 46.6456C169.377 46.3572 169.46 46.054 169.46 45.7358V44.6619C169.411 44.7216 169.301 44.7763 169.132 44.826C168.966 44.8724 168.774 44.9138 168.555 44.9503C168.34 44.9834 168.129 45.0133 167.924 45.0398C167.722 45.063 167.558 45.0829 167.432 45.0994C167.127 45.1392 166.842 45.2038 166.577 45.2933C166.315 45.3795 166.103 45.5104 165.94 45.6861C165.781 45.8584 165.702 46.0937 165.702 46.392C165.702 46.7997 165.853 47.108 166.154 47.3168C166.459 47.5223 166.845 47.625 167.312 47.625ZM172.298 46.5511H173.551C173.577 46.8958 173.733 47.1577 174.018 47.3366C174.306 47.5156 174.681 47.6051 175.142 47.6051C175.612 47.6051 176.015 47.509 176.35 47.3168C176.684 47.1212 176.852 46.8063 176.852 46.3722C176.852 46.117 176.789 45.8949 176.663 45.706C176.537 45.5137 176.36 45.3646 176.131 45.2585C175.902 45.1525 175.632 45.0994 175.32 45.0994H174.008V44.0455H175.32C175.788 44.0455 176.133 43.9394 176.355 43.7273C176.58 43.5152 176.693 43.25 176.693 42.9318C176.693 42.5904 176.572 42.317 176.33 42.1115C176.088 41.9027 175.745 41.7983 175.301 41.7983C174.853 41.7983 174.48 41.8994 174.182 42.1016C173.884 42.3004 173.726 42.5573 173.71 42.8722H172.477C172.49 42.4612 172.616 42.0982 172.855 41.7834C173.093 41.4652 173.418 41.2166 173.829 41.0376C174.24 40.8554 174.711 40.7642 175.241 40.7642C175.778 40.7642 176.244 40.8587 176.638 41.0476C177.036 41.2332 177.342 41.4867 177.558 41.8082C177.776 42.1264 177.886 42.4877 177.886 42.892C177.886 43.3229 177.765 43.6709 177.523 43.9361C177.281 44.2012 176.978 44.3902 176.613 44.5028V44.5824C176.901 44.6023 177.152 44.6951 177.364 44.8608C177.579 45.0232 177.747 45.237 177.866 45.5021C177.985 45.764 178.045 46.054 178.045 46.3722C178.045 46.8362 177.921 47.2405 177.672 47.5852C177.423 47.9266 177.082 48.1918 176.648 48.3807C176.214 48.5663 175.718 48.6591 175.161 48.6591C174.621 48.6591 174.137 48.5713 173.71 48.3956C173.282 48.2166 172.942 47.9697 172.691 47.6548C172.442 47.3366 172.311 46.9688 172.298 46.5511ZM180.866 46.7699L184.545 40.8636H185.898V48.5H184.724V42.5938L181.065 48.5H179.693V40.8636H180.866V46.7699ZM193.157 44.1449V45.2386H188.941V44.1449H193.157ZM189.22 40.8636V48.5H188.047V40.8636H189.22ZM194.052 40.8636V48.5H192.879V40.8636H194.052ZM200.132 48.5V40.8636H206.138V48.5H204.965V41.9574H201.306V48.5H200.132ZM211.383 48.6591C210.694 48.6591 210.089 48.495 209.569 48.1669C209.051 47.8388 208.647 47.3797 208.355 46.7898C208.067 46.1998 207.923 45.5104 207.923 44.7216C207.923 43.9261 208.067 43.2318 208.355 42.6385C208.647 42.0452 209.051 41.5845 209.569 41.2564C210.089 40.9283 210.694 40.7642 211.383 40.7642C212.073 40.7642 212.676 40.9283 213.193 41.2564C213.713 41.5845 214.118 42.0452 214.406 42.6385C214.698 43.2318 214.843 43.9261 214.843 44.7216C214.843 45.5104 214.698 46.1998 214.406 46.7898C214.118 47.3797 213.713 47.8388 213.193 48.1669C212.676 48.495 212.073 48.6591 211.383 48.6591ZM211.383 47.6051C211.907 47.6051 212.338 47.4709 212.676 47.2024C213.014 46.9339 213.264 46.581 213.426 46.1435C213.589 45.706 213.67 45.232 213.67 44.7216C213.67 44.2112 213.589 43.7356 213.426 43.2947C213.264 42.8539 213.014 42.4976 212.676 42.2259C212.338 41.9541 211.907 41.8182 211.383 41.8182C210.859 41.8182 210.429 41.9541 210.091 42.2259C209.752 42.4976 209.502 42.8539 209.34 43.2947C209.177 43.7356 209.096 44.2112 209.096 44.7216C209.096 45.232 209.177 45.706 209.34 46.1435C209.502 46.581 209.752 46.9339 210.091 47.2024C210.429 47.4709 210.859 47.6051 211.383 47.6051ZM215.958 48.5V47.4062H216.237C216.465 47.4062 216.656 47.3615 216.808 47.272C216.961 47.1792 217.084 47.0185 217.176 46.7898C217.272 46.5578 217.345 46.2363 217.395 45.8253C217.448 45.411 217.486 44.884 217.509 44.2443L217.649 40.8636H222.74V48.5H221.566V41.9574H218.762L218.643 44.6818C218.616 45.3082 218.56 45.8601 218.474 46.3374C218.391 46.8113 218.263 47.209 218.091 47.5305C217.922 47.852 217.697 48.094 217.415 48.2564C217.133 48.4188 216.78 48.5 216.356 48.5H215.958ZM228.094 48.6591C227.358 48.6591 226.723 48.4967 226.19 48.1719C225.66 47.8438 225.25 47.3864 224.962 46.7997C224.677 46.2098 224.534 45.5237 224.534 44.7415C224.534 43.9593 224.677 43.2699 224.962 42.6733C225.25 42.0734 225.651 41.6061 226.165 41.2713C226.682 40.9332 227.285 40.7642 227.975 40.7642C228.372 40.7642 228.765 40.8305 229.153 40.9631C229.541 41.0956 229.894 41.3111 230.212 41.6094C230.53 41.9044 230.784 42.2955 230.972 42.7827C231.161 43.2699 231.256 43.8698 231.256 44.5824V45.0795H225.369V44.0653H230.063C230.063 43.6345 229.977 43.25 229.804 42.9119C229.635 42.5739 229.393 42.3071 229.078 42.1115C228.767 41.916 228.399 41.8182 227.975 41.8182C227.507 41.8182 227.103 41.9342 226.762 42.1662C226.423 42.3949 226.163 42.6932 225.981 43.0611C225.799 43.429 225.708 43.8234 225.708 44.2443V44.9205C225.708 45.4972 225.807 45.986 226.006 46.3871C226.208 46.7848 226.488 47.0881 226.846 47.2969C227.204 47.5024 227.62 47.6051 228.094 47.6051C228.402 47.6051 228.681 47.562 228.929 47.4759C229.181 47.3864 229.398 47.2538 229.58 47.0781C229.763 46.8991 229.904 46.6771 230.003 46.4119L231.137 46.7301C231.017 47.1146 230.817 47.4527 230.535 47.7443C230.253 48.0327 229.905 48.258 229.491 48.4205C229.077 48.5795 228.611 48.6591 228.094 48.6591ZM232.563 46.5511H233.816C233.843 46.8958 233.999 47.1577 234.284 47.3366C234.572 47.5156 234.946 47.6051 235.407 47.6051C235.878 47.6051 236.28 47.509 236.615 47.3168C236.95 47.1212 237.117 46.8063 237.117 46.3722C237.117 46.117 237.054 45.8949 236.928 45.706C236.802 45.5137 236.625 45.3646 236.396 45.2585C236.168 45.1525 235.898 45.0994 235.586 45.0994H234.274V44.0455H235.586C236.053 44.0455 236.398 43.9394 236.62 43.7273C236.846 43.5152 236.958 43.25 236.958 42.9318C236.958 42.5904 236.837 42.317 236.595 42.1115C236.353 41.9027 236.01 41.7983 235.566 41.7983C235.119 41.7983 234.746 41.8994 234.448 42.1016C234.149 42.3004 233.992 42.5573 233.975 42.8722H232.742C232.756 42.4612 232.882 42.0982 233.12 41.7834C233.359 41.4652 233.684 41.2166 234.095 41.0376C234.506 40.8554 234.976 40.7642 235.507 40.7642C236.044 40.7642 236.509 40.8587 236.904 41.0476C237.301 41.2332 237.608 41.4867 237.823 41.8082C238.042 42.1264 238.151 42.4877 238.151 42.892C238.151 43.3229 238.03 43.6709 237.789 43.9361C237.547 44.2012 237.243 44.3902 236.879 44.5028V44.5824C237.167 44.6023 237.417 44.6951 237.629 44.8608C237.845 45.0232 238.012 45.237 238.132 45.5021C238.251 45.764 238.311 46.054 238.311 46.3722C238.311 46.8362 238.186 47.2405 237.938 47.5852C237.689 47.9266 237.348 48.1918 236.914 48.3807C236.479 48.5663 235.984 48.6591 235.427 48.6591C234.887 48.6591 234.403 48.5713 233.975 48.3956C233.548 48.2166 233.208 47.9697 232.956 47.6548C232.708 47.3366 232.577 46.9688 232.563 46.5511ZM245.069 44.1449V45.2386H240.854V44.1449H245.069ZM241.132 40.8636V48.5H239.959V40.8636H241.132ZM245.964 40.8636V48.5H244.791V40.8636H245.964ZM249.121 43.6278H251.309C252.204 43.6278 252.888 43.8549 253.362 44.3089C253.836 44.763 254.073 45.3381 254.073 46.0341C254.073 46.4915 253.967 46.9074 253.755 47.282C253.543 47.6532 253.231 47.9498 252.82 48.1719C252.409 48.3906 251.905 48.5 251.309 48.5H248.107V40.8636H249.28V47.4062H251.309C251.773 47.4062 252.154 47.2836 252.452 47.0384C252.751 46.7931 252.9 46.4782 252.9 46.0938C252.9 45.6894 252.751 45.3596 252.452 45.1044C252.154 44.8492 251.773 44.7216 251.309 44.7216H249.121V43.6278ZM255.286 48.5V40.8636H256.459V48.5H255.286ZM259.482 40.8636L261.312 43.9858L263.141 40.8636H264.493L262.028 44.6818L264.493 48.5H263.141L261.312 45.5369L259.482 48.5H258.13L260.556 44.6818L258.13 40.8636H259.482ZM270.105 48.5V40.8636H273.227C274.049 40.8636 274.702 41.0492 275.186 41.4205C275.67 41.7917 275.912 42.2822 275.912 42.892C275.912 43.3561 275.774 43.7157 275.499 43.9709C275.224 44.2228 274.871 44.3935 274.44 44.483C274.722 44.5227 274.996 44.6222 275.261 44.7812C275.529 44.9403 275.751 45.1591 275.927 45.4375C276.103 45.7126 276.19 46.0507 276.19 46.4517C276.19 46.8428 276.091 47.1925 275.892 47.5007C275.693 47.8089 275.408 48.0526 275.037 48.2315C274.666 48.4105 274.222 48.5 273.705 48.5H270.105ZM271.219 47.4261H273.705C274.109 47.4261 274.425 47.33 274.654 47.1378C274.883 46.9455 274.997 46.6837 274.997 46.3523C274.997 45.9579 274.883 45.648 274.654 45.4226C274.425 45.1939 274.109 45.0795 273.705 45.0795H271.219V47.4261ZM271.219 44.0653H273.227C273.542 44.0653 273.812 44.0223 274.038 43.9361C274.263 43.8466 274.435 43.7206 274.555 43.5582C274.677 43.3925 274.739 43.197 274.739 42.9716C274.739 42.6501 274.604 42.3982 274.336 42.2159C274.067 42.0303 273.698 41.9375 273.227 41.9375H271.219V44.0653ZM281.168 48.6591C280.432 48.6591 279.798 48.4967 279.264 48.1719C278.734 47.8438 278.324 47.3864 278.036 46.7997C277.751 46.2098 277.608 45.5237 277.608 44.7415C277.608 43.9593 277.751 43.2699 278.036 42.6733C278.324 42.0734 278.725 41.6061 279.239 41.2713C279.756 40.9332 280.359 40.7642 281.049 40.7642C281.447 40.7642 281.839 40.8305 282.227 40.9631C282.615 41.0956 282.968 41.3111 283.286 41.6094C283.604 41.9044 283.858 42.2955 284.047 42.7827C284.236 43.2699 284.33 43.8698 284.33 44.5824V45.0795H278.444V44.0653H283.137C283.137 43.6345 283.051 43.25 282.878 42.9119C282.709 42.5739 282.467 42.3071 282.153 42.1115C281.841 41.916 281.473 41.8182 281.049 41.8182C280.581 41.8182 280.177 41.9342 279.836 42.1662C279.498 42.3949 279.238 42.6932 279.055 43.0611C278.873 43.429 278.782 43.8234 278.782 44.2443V44.9205C278.782 45.4972 278.881 45.986 279.08 46.3871C279.282 46.7848 279.562 47.0881 279.92 47.2969C280.278 47.5024 280.694 47.6051 281.168 47.6051C281.476 47.6051 281.755 47.562 282.003 47.4759C282.255 47.3864 282.472 47.2538 282.655 47.0781C282.837 46.8991 282.978 46.6771 283.077 46.4119L284.211 46.7301C284.091 47.1146 283.891 47.4527 283.609 47.7443C283.327 48.0327 282.979 48.258 282.565 48.4205C282.151 48.5795 281.685 48.6591 281.168 48.6591ZM296.535 47.4062L296.396 50.6875H295.183V48.5H294.189V47.4062H296.535ZM286.115 40.8636H287.288V47.4062H290.172V40.8636H291.345V47.4062H294.229V40.8636H295.402V48.5H286.115V40.8636ZM301.362 48.6591C300.626 48.6591 299.991 48.4967 299.457 48.1719C298.927 47.8438 298.518 47.3864 298.229 46.7997C297.944 46.2098 297.802 45.5237 297.802 44.7415C297.802 43.9593 297.944 43.2699 298.229 42.6733C298.518 42.0734 298.919 41.6061 299.433 41.2713C299.95 40.9332 300.553 40.7642 301.242 40.7642C301.64 40.7642 302.033 40.8305 302.42 40.9631C302.808 41.0956 303.161 41.3111 303.479 41.6094C303.798 41.9044 304.051 42.2955 304.24 42.7827C304.429 43.2699 304.523 43.8698 304.523 44.5824V45.0795H298.637V44.0653H303.33C303.33 43.6345 303.244 43.25 303.072 42.9119C302.903 42.5739 302.661 42.3071 302.346 42.1115C302.034 41.916 301.666 41.8182 301.242 41.8182C300.775 41.8182 300.371 41.9342 300.029 42.1662C299.691 42.3949 299.431 42.6932 299.249 43.0611C299.066 43.429 298.975 43.8234 298.975 44.2443V44.9205C298.975 45.4972 299.075 45.986 299.273 46.3871C299.476 46.7848 299.756 47.0881 300.114 47.2969C300.472 47.5024 300.888 47.6051 301.362 47.6051C301.67 47.6051 301.948 47.562 302.197 47.4759C302.449 47.3864 302.666 47.2538 302.848 47.0781C303.03 46.8991 303.171 46.6771 303.271 46.4119L304.404 46.7301C304.285 47.1146 304.084 47.4527 303.803 47.7443C303.521 48.0327 303.173 48.258 302.759 48.4205C302.344 48.5795 301.879 48.6591 301.362 48.6591ZM307.482 46.7699L311.161 40.8636H312.513V48.5H311.339V42.5938L307.68 48.5H306.308V40.8636H307.482V46.7699ZM310.385 38.3182H311.479C311.479 38.8551 311.293 39.2943 310.922 39.6357C310.551 39.977 310.047 40.1477 309.411 40.1477C308.784 40.1477 308.285 39.977 307.914 39.6357C307.546 39.2943 307.362 38.8551 307.362 38.3182H308.456C308.456 38.5767 308.527 38.8037 308.67 38.9993C308.816 39.1948 309.063 39.2926 309.411 39.2926C309.759 39.2926 310.007 39.1948 310.156 38.9993C310.309 38.8037 310.385 38.5767 310.385 38.3182Z" fill="white"/>
<defs>
<clipPath id="clip0_702_13915">
<rect width="56" height="56" fill="white"/>
</clipPath>
</defs>
</svg>
